<svg xmlns="http://www.w3.org/2000/svg" width="512" height="512" viewBox="0 0 100 100"><style>path{fill:#000;}@media (prefers-color-scheme:dark){path{fill:#fff;}}</style><path d="m87.157 83.457 3.294-4.068L93.3 75l2.376-4.663 1.876-4.886 1.354-5.055.82-5.17L100 50l-.274-5.226-.819-5.17-1.354-5.055-1.876-4.886L93.301 25l-2.85-4.39-3.294-4.067-3.7-3.7-4.068-3.294L75 6.7l-4.663-2.376-4.886-1.876-5.055-1.354-5.17-.82L50 0l-5.226.274-5.17.819-5.055 1.354-4.886 1.876L25 6.699l-4.39 2.85-4.067 3.294-3.7 3.7-3.294 4.068L6.7 25l-2.376 4.663-1.876 4.886-1.354 5.055-.82 5.17L0 50l.274 5.226.819 5.17 1.354 5.055 1.876 4.886L6.699 75l2.85 4.39 3.294 4.067 3.7 3.7 4.068 3.294L25 93.3l4.663 2.376 4.886 1.876 5.055 1.354 5.17.82L50 100l5.226-.274 5.17-.819 5.055-1.354 4.886-1.876L75 93.301l4.39-2.85 4.067-3.294 3.7-3.7m-3.773-2.808-2.53 2.53-5.946-2.651-2.517-3.109-1.555 1.26-3.112 2.02-.745.366 1.908 3.515.175 6.507-3.306 1.37-4.478-4.725-1.127-3.803-2.78.745-3.666.58.408 3.978-2.329 6.079h-3.578l-2.33-6.079.419-3.978-3.665-.58-2.725-.73-.011.038-1.136 3.835-4.479 4.724-3.305-1.369.174-6.507 1.908-3.515.023-.042-.803-.409-3.112-2.02-1.442-1.168-2.517 3.108-5.945 2.652-2.53-2.53 2.65-5.946 3.11-2.517-1.168-1.442-2.021-3.112-.434-.852-.03.016-3.514 1.908-6.508.174-1.369-3.305 4.724-4.479 3.836-1.136.036-.01-.716-2.67-.58-3.665-3.978.418-6.079-2.329v-3.578l6.079-2.33 3.978.419.58-3.675.693-2.675-3.836-1.136L7.46 34.34l1.37-3.305 6.506.174 3.516 1.908.45-.841 2.02-3.112 1.168-1.442-3.108-2.517-2.652-5.945 2.53-2.53 5.946 2.65 2.517 3.11 1.442-1.168 3.112-2.021.78-.415-1.908-3.515-.174-6.507 3.305-1.37 4.479 4.725 1.136 3.835 2.736-.728 3.514-.556-.412-3.92 2.329-6.08h3.578l2.33 6.08-.41 3.888.146.008 3.665.58 2.65.71 1.118-3.774 4.478-4.724 3.306 1.37-.174 6.506-1.875 3.453.851.434 3.112 2.02 1.442 1.168 2.517-3.108 5.945-2.652 2.53 2.53-2.65 5.946-10.186 8.248-.868-1.07-1.948-1.95-2.142-1.734-2.311-1.5-2.456-1.252-.675-.259-1.898-.729-2.662-.713-2.722-.43L50 23.67l-2.752.144-2.722.431-2.662.713-1.973.758-.6.23-2.456 1.251-2.31 1.501-2.143 1.735-1.948 1.948-1.735 2.142-1.5 2.311-1.252 2.456-.259.675-.729 1.898-.713 2.662-.43 2.722L23.67 50l.144 2.752.431 2.722.713 2.662.736 1.917.252.656 1.251 2.456 1.501 2.31 1.735 2.143 1.948 1.948 2.142 1.735 2.311 1.5 2.456 1.252.613.235 1.96.753 2.662.713 2.722.43L50 76.33l2.752-.144 2.722-.431 2.662-.713 1.886-.724.687-.264 2.456-1.251 2.31-1.501 2.143-1.735 1.948-1.948.957-1.182 7.101 5.75 3.109 2.517 2.65 5.946"/></svg>